<svg width="288" height="44" viewBox="0 0 288 44" fill="none" xmlns="http://www.w3.org/2000/svg">
<path fill-rule="evenodd" clip-rule="evenodd" d="M22.2117 12.7789C21.0125 11.5775 19.5856 10.6248 18.0137 9.97619C16.4419 9.32753 14.7564 8.99574 13.0548 9.00004C5.91957 9.00004 0.111037 14.7796 0.108153 21.8838C0.108153 24.1542 0.703714 26.3702 1.83571 28.3249L0 35L6.86266 33.2074C8.76095 34.2359 10.8877 34.7752 13.049 34.7761H13.0548C20.1885 34.7761 25.9971 28.9966 25.9999 21.8924C26.0048 20.1995 25.6726 18.5225 25.0224 16.9583C24.3721 15.394 23.4168 13.9735 22.2117 12.7789ZM13.0548 32.6018H13.0504C11.1232 32.602 9.2314 32.0859 7.57358 31.1078L7.18135 30.8753L3.10903 31.9387L4.19489 27.9876L3.93965 27.5829C2.86214 25.8757 2.29173 23.8999 2.29428 21.8838C2.29717 15.9794 7.12367 11.1758 13.0591 11.1758C14.4727 11.1727 15.8728 11.4486 17.1785 11.9876C18.4842 12.5266 19.6695 13.318 20.6658 14.316C21.6675 15.3092 22.4615 16.4902 23.0018 17.7906C23.5421 19.091 23.8181 20.4852 23.8138 21.8924C23.8109 27.7968 18.9844 32.6018 13.0548 32.6018ZM18.957 24.5805C18.6326 24.4183 17.0434 23.6404 16.7464 23.5328C16.4508 23.4252 16.2359 23.3721 16.0196 23.6935C15.8033 24.015 15.1832 24.7398 14.9943 24.9551C14.8054 25.1704 14.6165 25.1962 14.2935 25.0355C13.9705 24.8747 12.9279 24.5346 11.692 23.4381C10.7302 22.5841 10.0813 21.5307 9.89238 21.2078C9.70347 20.8849 9.87219 20.7112 10.0351 20.5505C10.1808 20.407 10.3582 20.1745 10.5197 19.9864C10.6812 19.7984 10.7345 19.665 10.8427 19.4497C10.9508 19.2344 10.8975 19.0464 10.8153 18.8857C10.7345 18.7235 10.0871 17.139 9.81739 16.4946C9.55639 15.8703 9.28961 15.9536 9.09061 15.9449C8.88451 15.9366 8.67824 15.9327 8.47197 15.9335C8.30795 15.9376 8.14656 15.9755 7.99792 16.0446C7.84928 16.1138 7.7166 16.2127 7.60819 16.3353C7.31113 16.6582 6.47619 17.4361 6.47619 19.0206C6.47619 20.605 7.63559 22.1364 7.7971 22.3516C7.95861 22.5669 10.0784 25.8176 13.323 27.2126C14.0959 27.5442 14.6987 27.7422 15.1674 27.8915C15.9417 28.1369 16.6469 28.101 17.205 28.0192C17.8265 27.9274 19.1185 27.2413 19.3882 26.4893C19.6579 25.7373 19.6579 25.0929 19.5771 24.958C19.4964 24.823 19.2786 24.7412 18.957 24.5805Z" fill="white"/>
<rect x="61.5" y="0.5" width="225.677" height="43" rx="2.5" stroke="#DBA069"/>
<path d="M101.321 32.6901L101.344 32.6526L103.677 27.9171L96.8619 22.8058L93.7263 25.1574C92.5438 25.087 91.4281 24.5855 90.5905 23.7479C89.7529 22.9102 89.2514 21.7946 89.181 20.612L91.5326 17.4765L86.4215 10.6615L81.7255 12.9751L81.6858 12.9946L81.6484 13.0181C81.4495 13.1415 81.2855 13.3139 81.172 13.5186C81.0585 13.7234 80.9993 13.9539 81 14.188L81 15.4099C81 17.7643 81.4637 20.0957 82.3647 22.2709C83.2657 24.4461 84.5863 26.4225 86.2512 28.0873C87.916 29.7522 89.8924 31.0728 92.0676 31.9738C94.2428 32.8747 96.5742 33.3385 98.9286 33.3385H100.151C100.385 33.3392 100.615 33.28 100.82 33.1665C101.025 33.053 101.197 32.889 101.321 32.6901ZM98.9286 31.5885C90.0077 31.5885 82.75 24.3308 82.75 15.4099V14.4212L85.8925 12.8732L89.3452 17.4768L87.423 20.0398V20.3315C87.425 22.0772 88.1193 23.7508 89.3537 24.9852C90.5881 26.2196 92.2617 26.9139 94.0074 26.9159H94.299L96.862 24.9937L101.465 28.446L99.9171 31.5885H98.9286Z" fill="white"/>
<path d="M119.497 18.62V21.62H122.417V23.14H119.497V26.12H117.817V23.14H114.917V21.62H117.817V18.62H119.497ZM131.546 15.62V17L126.546 29.2L124.866 28.64L129.686 17.12H123.766V15.62H131.546ZM147.326 15.62V17L142.326 29.2L140.646 28.64L145.466 17.12H139.546V15.62H147.326ZM154.078 15.42C155.558 15.42 156.671 16.0133 157.418 17.2C158.178 18.3733 158.558 20.08 158.558 22.32C158.558 24.56 158.178 26.2733 157.418 27.46C156.671 28.6467 155.558 29.24 154.078 29.24C152.598 29.24 151.478 28.6467 150.718 27.46C149.971 26.2733 149.598 24.56 149.598 22.32C149.598 20.08 149.971 18.3733 150.718 17.2C151.478 16.0133 152.598 15.42 154.078 15.42ZM154.078 16.88C153.211 16.88 152.565 17.3067 152.138 18.16C151.725 19.0133 151.518 20.4 151.518 22.32C151.518 24.24 151.725 25.6333 152.138 26.5C152.565 27.3533 153.211 27.78 154.078 27.78C154.931 27.78 155.571 27.3533 155.998 26.5C156.425 25.6333 156.638 24.24 156.638 22.32C156.638 20.4133 156.425 19.0333 155.998 18.18C155.571 17.3133 154.931 16.88 154.078 16.88ZM166.03 15.42C167.51 15.42 168.624 16.0133 169.37 17.2C170.13 18.3733 170.51 20.08 170.51 22.32C170.51 24.56 170.13 26.2733 169.37 27.46C168.624 28.6467 167.51 29.24 166.03 29.24C164.55 29.24 163.43 28.6467 162.67 27.46C161.924 26.2733 161.55 24.56 161.55 22.32C161.55 20.08 161.924 18.3733 162.67 17.2C163.43 16.0133 164.55 15.42 166.03 15.42ZM166.03 16.88C165.164 16.88 164.517 17.3067 164.09 18.16C163.677 19.0133 163.47 20.4 163.47 22.32C163.47 24.24 163.677 25.6333 164.09 26.5C164.517 27.3533 165.164 27.78 166.03 27.78C166.884 27.78 167.524 27.3533 167.95 26.5C168.377 25.6333 168.59 24.24 168.59 22.32C168.59 20.4133 168.377 19.0333 167.95 18.18C167.524 17.3133 166.884 16.88 166.03 16.88ZM184.076 15.42C185.556 15.42 186.669 16.0133 187.416 17.2C188.176 18.3733 188.556 20.08 188.556 22.32C188.556 24.56 188.176 26.2733 187.416 27.46C186.669 28.6467 185.556 29.24 184.076 29.24C182.596 29.24 181.476 28.6467 180.716 27.46C179.969 26.2733 179.596 24.56 179.596 22.32C179.596 20.08 179.969 18.3733 180.716 17.2C181.476 16.0133 182.596 15.42 184.076 15.42ZM184.076 16.88C183.209 16.88 182.562 17.3067 182.136 18.16C181.722 19.0133 181.516 20.4 181.516 22.32C181.516 24.24 181.722 25.6333 182.136 26.5C182.562 27.3533 183.209 27.78 184.076 27.78C184.929 27.78 185.569 27.3533 185.996 26.5C186.422 25.6333 186.636 24.24 186.636 22.32C186.636 20.4133 186.422 19.0333 185.996 18.18C185.569 17.3133 184.929 16.88 184.076 16.88ZM196.028 15.42C197.508 15.42 198.621 16.0133 199.368 17.2C200.128 18.3733 200.508 20.08 200.508 22.32C200.508 24.56 200.128 26.2733 199.368 27.46C198.621 28.6467 197.508 29.24 196.028 29.24C194.548 29.24 193.428 28.6467 192.668 27.46C191.921 26.2733 191.548 24.56 191.548 22.32C191.548 20.08 191.921 18.3733 192.668 17.2C193.428 16.0133 194.548 15.42 196.028 15.42ZM196.028 16.88C195.161 16.88 194.515 17.3067 194.088 18.16C193.675 19.0133 193.468 20.4 193.468 22.32C193.468 24.24 193.675 25.6333 194.088 26.5C194.515 27.3533 195.161 27.78 196.028 27.78C196.881 27.78 197.521 27.3533 197.948 26.5C198.375 25.6333 198.588 24.24 198.588 22.32C198.588 20.4133 198.375 19.0333 197.948 18.18C197.521 17.3133 196.881 16.88 196.028 16.88ZM208.353 15.62V29H206.513V17.58L203.393 19.48L202.593 18.18L206.733 15.62H208.353ZM223.898 15.62V29H222.058V17.58L218.938 19.48L218.138 18.18L222.278 15.62H223.898ZM234.19 21.82C236.07 22.58 237.01 23.78 237.01 25.42C237.01 26.1533 236.81 26.8133 236.41 27.4C236.024 27.9733 235.477 28.4267 234.77 28.76C234.064 29.08 233.264 29.24 232.37 29.24C231.464 29.24 230.664 29.08 229.97 28.76C229.277 28.44 228.737 27.9933 228.35 27.42C227.977 26.8467 227.79 26.1933 227.79 25.46C227.79 24.6333 228.01 23.94 228.45 23.38C228.904 22.82 229.564 22.3533 230.43 21.98C229.724 21.62 229.197 21.1867 228.85 20.68C228.517 20.16 228.35 19.5533 228.35 18.86C228.35 18.14 228.537 17.52 228.91 17C229.297 16.48 229.797 16.0867 230.41 15.82C231.037 15.5533 231.704 15.42 232.41 15.42C233.104 15.42 233.757 15.5467 234.37 15.8C234.997 16.0533 235.504 16.44 235.89 16.96C236.277 17.4667 236.47 18.08 236.47 18.8C236.47 19.4667 236.284 20.04 235.91 20.52C235.537 21 234.964 21.4333 234.19 21.82ZM232.41 16.8C231.717 16.8 231.164 16.98 230.75 17.34C230.35 17.7 230.15 18.2133 230.15 18.88C230.15 19.52 230.344 20.0067 230.73 20.34C231.13 20.6733 231.764 20.98 232.63 21.26L232.97 21.38C233.57 21.0333 234.004 20.6667 234.27 20.28C234.537 19.8933 234.67 19.42 234.67 18.86C234.67 18.2333 234.47 17.7333 234.07 17.36C233.684 16.9867 233.13 16.8 232.41 16.8ZM232.39 27.78C233.217 27.78 233.87 27.5667 234.35 27.14C234.844 26.7133 235.09 26.1467 235.09 25.44C235.09 24.96 234.997 24.56 234.81 24.24C234.624 23.9067 234.324 23.62 233.91 23.38C233.497 23.1267 232.917 22.8733 232.17 22.62L231.67 22.44C231.004 22.76 230.51 23.1667 230.19 23.66C229.87 24.14 229.71 24.74 229.71 25.46C229.71 26.1933 229.95 26.7667 230.43 27.18C230.91 27.58 231.564 27.78 232.39 27.78ZM252.099 21.82C253.979 22.58 254.919 23.78 254.919 25.42C254.919 26.1533 254.719 26.8133 254.319 27.4C253.932 27.9733 253.386 28.4267 252.679 28.76C251.972 29.08 251.172 29.24 250.279 29.24C249.372 29.24 248.572 29.08 247.879 28.76C247.186 28.44 246.646 27.9933 246.259 27.42C245.886 26.8467 245.699 26.1933 245.699 25.46C245.699 24.6333 245.919 23.94 246.359 23.38C246.812 22.82 247.472 22.3533 248.339 21.98C247.632 21.62 247.106 21.1867 246.759 20.68C246.426 20.16 246.259 19.5533 246.259 18.86C246.259 18.14 246.446 17.52 246.819 17C247.206 16.48 247.706 16.0867 248.319 15.82C248.946 15.5533 249.612 15.42 250.319 15.42C251.012 15.42 251.666 15.5467 252.279 15.8C252.906 16.0533 253.412 16.44 253.799 16.96C254.186 17.4667 254.379 18.08 254.379 18.8C254.379 19.4667 254.192 20.04 253.819 20.52C253.446 21 252.872 21.4333 252.099 21.82ZM250.319 16.8C249.626 16.8 249.072 16.98 248.659 17.34C248.259 17.7 248.059 18.2133 248.059 18.88C248.059 19.52 248.252 20.0067 248.639 20.34C249.039 20.6733 249.672 20.98 250.539 21.26L250.879 21.38C251.479 21.0333 251.912 20.6667 252.179 20.28C252.446 19.8933 252.579 19.42 252.579 18.86C252.579 18.2333 252.379 17.7333 251.979 17.36C251.592 16.9867 251.039 16.8 250.319 16.8ZM250.299 27.78C251.126 27.78 251.779 27.5667 252.259 27.14C252.752 26.7133 252.999 26.1467 252.999 25.44C252.999 24.96 252.906 24.56 252.719 24.24C252.532 23.9067 252.232 23.62 251.819 23.38C251.406 23.1267 250.826 22.8733 250.079 22.62L249.579 22.44C248.912 22.76 248.419 23.1667 248.099 23.66C247.779 24.14 247.619 24.74 247.619 25.46C247.619 26.1933 247.859 26.7667 248.339 27.18C248.819 27.58 249.472 27.78 250.299 27.78ZM263.915 21.82C265.795 22.58 266.735 23.78 266.735 25.42C266.735 26.1533 266.535 26.8133 266.135 27.4C265.748 27.9733 265.201 28.4267 264.495 28.76C263.788 29.08 262.988 29.24 262.095 29.24C261.188 29.24 260.388 29.08 259.695 28.76C259.001 28.44 258.461 27.9933 258.075 27.42C257.701 26.8467 257.515 26.1933 257.515 25.46C257.515 24.6333 257.735 23.94 258.175 23.38C258.628 22.82 259.288 22.3533 260.155 21.98C259.448 21.62 258.921 21.1867 258.575 20.68C258.241 20.16 258.075 19.5533 258.075 18.86C258.075 18.14 258.261 17.52 258.635 17C259.021 16.48 259.521 16.0867 260.135 15.82C260.761 15.5533 261.428 15.42 262.135 15.42C262.828 15.42 263.481 15.5467 264.095 15.8C264.721 16.0533 265.228 16.44 265.615 16.96C266.001 17.4667 266.195 18.08 266.195 18.8C266.195 19.4667 266.008 20.04 265.635 20.52C265.261 21 264.688 21.4333 263.915 21.82ZM262.135 16.8C261.441 16.8 260.888 16.98 260.475 17.34C260.075 17.7 259.875 18.2133 259.875 18.88C259.875 19.52 260.068 20.0067 260.455 20.34C260.855 20.6733 261.488 20.98 262.355 21.26L262.695 21.38C263.295 21.0333 263.728 20.6667 263.995 20.28C264.261 19.8933 264.395 19.42 264.395 18.86C264.395 18.2333 264.195 17.7333 263.795 17.36C263.408 16.9867 262.855 16.8 262.135 16.8ZM262.115 27.78C262.941 27.78 263.595 27.5667 264.075 27.14C264.568 26.7133 264.815 26.1467 264.815 25.44C264.815 24.96 264.721 24.56 264.535 24.24C264.348 23.9067 264.048 23.62 263.635 23.38C263.221 23.1267 262.641 22.8733 261.895 22.62L261.395 22.44C260.728 22.76 260.235 23.1667 259.915 23.66C259.595 24.14 259.435 24.74 259.435 25.46C259.435 26.1933 259.675 26.7667 260.155 27.18C260.635 27.58 261.288 27.78 262.115 27.78Z" fill="white"/>
</svg>
