<?xml version="1.0" standalone="no"?>
<!DOCTYPE svg PUBLIC "-//W3C//DTD SVG 20010904//EN"
 "http://www.w3.org/TR/2001/REC-SVG-20010904/DTD/svg10.dtd">
<svg version="1.0" xmlns="http://www.w3.org/2000/svg"
 width="1280.000000pt" height="640.000000pt" viewBox="0 0 1280.000000 640.000000"
 preserveAspectRatio="xMidYMid meet">
<g transform="translate(0.000000,640.000000) scale(0.100000,-0.100000)"
fill="#000000" stroke="none">
<path d="M11473 5602 c-101 -36 -174 -104 -228 -211 -25 -51 -27 -62 -23 -150
5 -109 22 -154 90 -227 109 -118 291 -156 453 -94 71 27 169 119 203 190 87
182 7 389 -186 478 -77 35 -229 42 -309 14z"/>
<path d="M9435 5586 c-119 -30 -205 -103 -262 -221 l-35 -74 11 -96 c12 -111
33 -157 104 -222 163 -151 417 -146 565 10 27 30 63 78 78 108 25 48 29 65 29
144 0 108 -20 159 -90 234 -59 63 -116 97 -197 116 -75 17 -135 18 -203 1z"/>
<path d="M7345 5557 c-112 -38 -189 -104 -244 -211 -33 -65 -34 -68 -28 -161
4 -77 10 -103 33 -145 36 -66 110 -135 182 -168 51 -24 69 -27 167 -27 102 0
115 2 175 31 81 38 151 108 192 193 27 53 32 76 32 135 1 43 -7 92 -18 124
-25 74 -109 162 -192 203 -57 28 -77 33 -162 36 -63 2 -111 -2 -137 -10z"/>
<path d="M5318 5539 c-121 -18 -233 -101 -293 -219 -25 -49 -26 -60 -23 -154
4 -121 25 -172 100 -242 201 -188 525 -131 645 113 39 80 44 184 13 265 -45
120 -172 218 -306 238 -38 5 -71 9 -74 9 -3 -1 -31 -5 -62 -10z"/>
<path d="M3187 5510 c-108 -28 -205 -107 -258 -211 -30 -60 -31 -67 -27 -163
3 -89 7 -108 33 -155 123 -225 461 -262 639 -70 82 89 101 135 101 249 -1 113
-20 163 -96 241 -72 74 -158 111 -267 115 -48 2 -104 -1 -125 -6z"/>
<path d="M1065 5477 c-101 -34 -167 -89 -227 -189 l-40 -68 3 -107 c5 -126 22
-166 108 -247 169 -157 447 -136 590 44 147 185 88 436 -127 542 -59 29 -76
33 -166 35 -64 2 -116 -2 -141 -10z"/>
<path d="M11525 4729 c-476 -11 -524 -20 -633 -123 -90 -85 -96 -99 -222 -551
-44 -157 -82 -291 -86 -297 -13 -20 -25 11 -85 217 -132 455 -168 546 -248
616 -24 22 -78 56 -120 77 -70 34 -82 37 -180 40 -58 2 -286 -1 -506 -7 -428
-11 -474 -16 -560 -66 -49 -29 -126 -107 -148 -151 -24 -48 -57 -154 -142
-459 -54 -195 -85 -290 -94 -290 -9 0 -35 75 -77 220 -127 440 -166 538 -245
609 -61 55 -160 104 -230 115 -62 10 -839 -5 -963 -19 -106 -11 -171 -40 -245
-106 -72 -65 -101 -132 -187 -439 -98 -349 -117 -410 -129 -410 -5 0 -38 97
-72 215 -131 453 -171 550 -250 620 -73 64 -179 112 -260 117 -113 8 -923 -15
-983 -28 -100 -21 -194 -82 -250 -163 -38 -56 -60 -123 -168 -512 -56 -200
-94 -319 -102 -319 -8 0 -35 80 -71 205 -87 300 -147 487 -179 556 -38 79
-105 144 -198 191 l-76 38 -445 -2 c-631 -4 -687 -12 -802 -119 -87 -83 -99
-113 -219 -544 -102 -368 -100 -362 -112 -358 -6 2 -44 118 -84 258 -158 548
-184 601 -340 690 -104 60 -121 61 -624 50 -250 -5 -481 -14 -512 -19 -75 -13
-131 -38 -195 -89 -60 -48 -95 -103 -130 -205 -29 -86 -165 -572 -258 -922
-36 -137 -73 -274 -82 -302 -16 -53 -16 -53 11 -94 49 -74 163 -101 218 -52
36 31 64 110 203 574 74 249 144 472 155 495 19 44 52 63 85 50 34 -13 32 -21
-245 -1015 -193 -693 -213 -770 -206 -787 4 -11 35 -14 154 -14 82 0 190 -3
240 -6 l91 -7 3 -667 c3 -755 -5 -684 86 -737 36 -22 52 -25 105 -21 34 2 79
12 100 23 76 36 71 -7 78 723 4 406 10 657 16 663 6 6 39 9 74 7 l64 -3 5
-670 5 -669 63 -33 c52 -27 75 -33 126 -33 73 0 143 31 163 71 9 18 14 207 21
677 5 359 12 656 16 660 4 4 115 12 246 17 131 6 241 13 245 17 8 8 -29 153
-250 973 -208 771 -210 782 -195 800 16 19 54 19 73 0 17 -17 31 -61 127 -405
93 -332 155 -549 168 -580 26 -64 99 -100 203 -100 52 0 59 3 87 34 39 45 56
90 174 486 185 622 183 619 244 623 27 2 29 -1 32 -38 2 -28 -60 -266 -207
-795 -229 -826 -267 -967 -259 -975 3 -3 113 -9 244 -13 l239 -7 6 -675 c3
-371 6 -676 7 -676 1 -1 27 -19 58 -40 51 -35 63 -39 118 -39 43 1 73 7 103
23 83 43 77 -5 84 730 5 538 9 656 20 663 8 5 35 9 61 9 86 0 78 69 78 -676
l0 -664 46 -30 c26 -16 70 -34 99 -41 99 -22 208 25 220 94 3 18 9 317 14 665
5 401 12 637 18 643 6 6 113 15 244 20 128 5 237 13 242 18 10 10 4 33 -255
996 -105 391 -191 726 -192 745 -1 34 0 35 39 35 33 0 42 -4 52 -25 7 -14 71
-235 143 -490 72 -256 139 -478 148 -495 36 -62 185 -104 250 -71 57 30 75 77
251 667 140 469 140 469 205 469 51 0 57 27 -268 -1140 -177 -638 -183 -660
-165 -671 8 -5 113 -9 234 -9 121 0 225 -4 231 -8 8 -5 13 -193 16 -676 l4
-669 34 -30 c73 -61 153 -73 241 -36 88 38 83 -5 90 732 4 400 10 652 16 658
6 6 39 9 74 7 l64 -3 3 -662 2 -663 42 -30 c22 -17 59 -35 82 -41 86 -23 207
9 233 62 8 17 14 211 21 677 5 359 13 657 18 661 5 5 116 13 247 18 131 6 240
13 244 16 7 7 -30 150 -277 1067 -94 349 -173 652 -176 672 -6 34 -4 38 21 44
62 16 65 10 155 -308 141 -502 189 -668 204 -696 30 -58 94 -91 178 -92 39 0
51 5 77 30 40 40 52 75 203 580 72 239 140 455 152 480 25 54 66 74 93 47 22
-22 26 -5 -189 -777 -240 -864 -279 -1013 -271 -1021 5 -4 114 -11 243 -14
155 -5 238 -11 242 -19 4 -6 8 -309 8 -673 l0 -661 38 -30 c58 -46 79 -54 142
-53 76 0 143 31 163 74 13 27 17 136 23 680 5 503 10 649 20 658 7 5 39 9 71
7 l58 -3 3 -659 c2 -736 -4 -677 74 -717 97 -49 202 -43 266 16 l35 32 9 659
c5 364 13 663 18 668 5 5 114 13 242 18 128 6 237 14 243 19 12 12 8 26 -245
968 -184 686 -204 765 -201 798 2 18 35 25 64 14 30 -12 19 23 163 -491 143
-511 142 -508 178 -547 35 -37 127 -66 177 -56 39 7 82 59 108 127 11 30 77
244 146 475 163 550 160 541 222 541 31 0 33 -2 33 -34 0 -34 -75 -312 -304
-1136 -146 -522 -173 -627 -162 -637 4 -4 105 -9 224 -11 119 -1 227 -5 240
-8 l22 -4 0 -669 0 -669 33 -28 c52 -44 113 -67 167 -62 59 6 118 35 144 71
21 28 21 42 27 685 3 361 6 658 7 660 1 2 35 2 75 0 l72 -3 3 -662 2 -662 35
-26 c90 -69 224 -71 298 -5 l32 28 7 299 c3 164 7 461 7 659 1 281 4 364 14
372 7 6 110 15 246 20 128 6 237 14 242 19 10 10 -27 155 -286 1113 -91 338
-164 626 -163 640 3 21 9 25 41 28 52 4 26 79 258 -742 81 -290 93 -312 176
-340 96 -33 154 -14 192 62 25 51 73 199 190 593 117 392 135 444 164 464 28
20 63 19 71 -1 9 -24 -16 -120 -224 -869 -230 -828 -253 -913 -246 -923 3 -5
112 -12 243 -16 167 -5 240 -10 245 -19 4 -7 8 -310 8 -674 l0 -661 39 -31
c50 -40 82 -51 144 -51 64 0 129 29 154 66 17 26 19 73 26 679 4 357 10 656
12 663 3 9 24 12 72 10 l68 -3 3 -662 2 -662 33 -25 c77 -59 183 -73 264 -37
78 36 73 -9 84 727 7 497 13 660 22 666 7 4 62 8 122 9 155 1 353 13 361 22 9
9 -1 51 -226 887 -235 873 -234 869 -219 886 14 17 50 18 71 2 20 -16 37 -70
143 -453 159 -573 159 -570 226 -610 45 -26 123 -26 169 1 39 22 82 97 76 129
-7 34 -133 486 -212 760 -95 330 -156 513 -190 570 -49 85 -157 160 -269 190
-64 16 -67 16 -600 4z"/>
</g>
</svg>
