<?xml version="1.0" standalone="no"?>
<!DOCTYPE svg PUBLIC "-//W3C//DTD SVG 20010904//EN"
 "http://www.w3.org/TR/2001/REC-SVG-20010904/DTD/svg10.dtd">
<svg version="1.0" xmlns="http://www.w3.org/2000/svg"
 width="1280.000000pt" height="1171.000000pt" viewBox="0 0 1280.000000 1171.000000"
 preserveAspectRatio="xMidYMid meet">
<metadata>
Created by potrace 1.15, written by Peter Selinger 2001-2017
</metadata>
<g transform="translate(0.000000,1171.000000) scale(0.100000,-0.100000)"
fill="#000000" stroke="none">
<path d="M4880 11700 c-621 -49 -1219 -268 -1693 -621 -272 -203 -463 -441
-647 -808 -256 -511 -418 -1170 -397 -1606 9 -180 22 -235 138 -616 31 -105
279 -615 369 -760 46 -75 143 -189 161 -189 4 0 10 26 14 58 13 114 57 331
102 517 55 222 58 281 34 665 -10 174 -11 250 -2 335 12 124 77 429 117 550
67 202 210 418 346 520 77 58 113 73 211 89 60 10 81 18 93 34 8 12 23 22 33
22 9 0 25 6 35 13 27 20 7 50 -49 71 -52 20 -62 51 -20 62 36 9 81 -13 115
-56 29 -37 44 -45 130 -71 24 -8 83 -38 130 -68 164 -104 157 -102 443 -111
408 -14 532 -30 630 -82 71 -38 237 -195 237 -224 0 -31 52 -107 101 -146 24
-19 82 -60 129 -90 108 -70 178 -144 272 -289 42 -64 89 -125 105 -137 21 -15
32 -33 36 -57 8 -46 70 -138 202 -299 189 -229 293 -408 352 -601 25 -85 27
-99 24 -265 -2 -96 -3 -220 -4 -275 -1 -55 2 -112 6 -127 l7 -28 98 0 c119 1
154 13 229 77 105 91 211 129 337 121 78 -5 134 -29 178 -75 127 -134 63 -393
-203 -815 -127 -202 -260 -347 -453 -495 -67 -51 -181 -74 -271 -54 -29 6 -32
3 -77 -72 -118 -197 -255 -304 -878 -687 -231 -142 -402 -224 -695 -335 -368
-139 -534 -204 -567 -221 l-32 -16 28 -15 c98 -51 277 -30 524 62 498 187
1023 478 1533 851 72 53 181 122 242 156 62 33 131 75 155 95 l42 34 0 -47 c0
-90 -32 -258 -69 -368 -154 -449 -393 -905 -602 -1146 -156 -181 -522 -574
-712 -765 -205 -205 -244 -258 -231 -310 5 -21 -4 -28 -98 -73 -73 -36 -127
-71 -187 -124 -46 -40 -89 -81 -95 -91 -9 -14 0 -40 49 -134 104 -204 198
-336 310 -438 255 -232 278 -259 290 -352 8 -63 -10 -215 -36 -299 -11 -36
-39 -89 -68 -128 -27 -36 -57 -86 -67 -110 l-18 -43 -97 196 -97 197 -166 161
-167 161 -12 63 -13 64 -130 98 c-198 149 -261 219 -286 316 -21 84 -103 141
-204 141 -23 0 -46 6 -52 13 -5 6 -34 118 -63 247 l-54 235 1 195 c0 168 3
207 22 277 51 191 88 268 210 437 l64 88 -42 157 c-23 86 -44 164 -46 174 -5
15 -2 16 21 7 36 -14 44 -12 21 5 -11 8 -27 15 -36 15 -12 0 -21 16 -30 53
-12 53 -13 54 -60 66 -64 16 -116 51 -227 149 -58 51 -89 73 -82 59 10 -21 3
-37 -53 -128 -157 -253 -159 -255 -317 -384 -81 -66 -185 -153 -231 -193 -100
-85 -660 -443 -675 -431 -11 8 -206 -152 -445 -365 -400 -355 -790 -785 -1004
-1106 -150 -225 -185 -307 -241 -559 -26 -117 -27 -130 -16 -217 6 -51 11
-120 11 -153 l0 -60 -231 -346 c-128 -190 -257 -374 -287 -408 -71 -79 -161
-200 -200 -269 -33 -57 -82 -194 -82 -227 l0 -21 6400 0 c5113 0 6400 3 6400
13 0 26 -59 135 -109 200 -37 48 -47 67 -35 67 23 0 15 28 -58 195 -123 284
-126 293 -143 425 -14 108 -22 138 -61 224 -39 83 -47 114 -55 195 -10 95 -32
186 -49 196 -5 3 -25 58 -45 123 -32 103 -42 123 -81 163 -54 55 -48 36 -174
529 -137 538 -209 745 -293 845 -18 21 -52 80 -77 131 -44 90 -53 101 -278
329 l-232 237 -143 68 c-170 81 -311 137 -552 220 -111 37 -243 93 -345 143
-105 52 -229 103 -344 142 l-180 60 -8 44 c-15 88 -71 133 -194 156 -90 17
-197 66 -219 99 -8 12 -22 58 -31 101 -9 44 -22 91 -29 105 -12 24 -10 31 25
87 58 91 197 361 220 428 25 74 25 137 0 264 -24 117 -60 225 -100 296 -16 28
-43 86 -60 130 -71 181 -282 559 -397 712 -59 78 -251 299 -302 347 -17 17
-31 39 -31 50 0 12 38 95 84 186 96 188 120 252 172 470 32 137 37 174 42 322
10 337 -42 740 -129 1008 -84 257 -272 658 -374 800 -30 41 -92 131 -139 200
-238 350 -528 646 -826 844 -434 287 -957 462 -1588 532 -165 18 -622 26 -782
14z"/>
<path d="M3413 8350 c-33 -14 -32 -78 2 -118 18 -22 25 -40 23 -63 -2 -27 1
-34 17 -37 47 -8 49 -13 10 -31 -22 -10 -69 -37 -104 -59 -89 -58 -118 -55
-66 6 28 34 32 52 11 52 -25 0 -75 -72 -87 -124 -13 -60 -1 -102 33 -115 33
-12 56 -2 85 36 54 70 90 67 123 -10 12 -29 29 -58 38 -64 16 -13 120 -18 157
-7 11 3 34 28 50 56 44 76 53 78 127 40 61 -31 110 -40 135 -24 6 4 17 20 22
35 18 48 -2 103 -75 200 -24 32 -49 77 -56 100 -27 95 -100 129 -293 134 -71
1 -140 -1 -152 -7z"/>
<path d="M4840 8351 c-40 -8 -71 -24 -116 -58 -36 -27 -57 -29 -74 -8 -22 27
-65 18 -99 -20 -39 -45 -39 -78 -1 -129 35 -47 36 -61 9 -146 -25 -78 -37
-260 -20 -304 17 -44 38 -17 46 59 4 36 13 70 21 76 19 16 97 3 128 -22 l25
-20 50 36 c56 41 176 105 195 105 9 0 16 -20 20 -56 3 -31 13 -69 21 -85 17
-32 61 -59 98 -59 13 0 32 -7 43 -15 10 -8 23 -15 27 -15 5 0 46 36 92 80 46
44 87 80 91 80 4 0 26 -18 49 -39 57 -53 112 -79 179 -87 52 -6 56 -5 56 13 0
27 16 39 67 50 l42 8 -54 66 c-94 116 -236 207 -386 249 -111 30 -150 64 -90
76 43 9 103 67 99 96 -4 31 -55 55 -143 68 -78 11 -321 12 -375 1z"/>
<path d="M4230 6666 c-25 -7 -72 -26 -105 -41 -33 -15 -77 -28 -97 -29 -48 -1
-48 -16 -3 -54 61 -50 122 -75 179 -73 51 1 270 56 340 85 37 16 59 47 38 54
-7 2 -10 8 -6 13 3 5 -4 9 -15 9 -11 0 -57 9 -103 19 -120 28 -176 32 -228 17z"/>
<path d="M5643 6390 c-96 -20 -361 -144 -387 -182 -19 -27 -21 -78 -3 -102 35
-48 167 -23 307 59 81 47 169 88 212 99 58 14 80 81 36 110 -30 19 -112 27
-165 16z"/>
<path d="M4035 6019 c-121 -14 -229 -44 -280 -79 -122 -84 -100 -132 106 -236
l110 -55 -7 120 -7 120 26 10 c37 14 68 3 109 -40 44 -47 83 -52 98 -15 17 47
84 41 145 -13 19 -17 52 -35 73 -40 21 -6 49 -22 61 -35 32 -34 61 -39 139
-21 37 9 132 23 212 31 153 15 180 20 180 34 0 33 -230 154 -360 189 -144 39
-407 51 -605 30z"/>
<path d="M4518 5580 c-164 -91 -233 -120 -321 -136 -88 -16 -149 -46 -155 -75
-4 -19 35 -76 69 -102 36 -26 103 -32 212 -18 187 25 297 65 378 138 77 70 91
135 38 184 -30 28 -83 49 -126 49 -12 0 -54 -18 -95 -40z"/>
</g>
</svg>
